HIERARCHY
ROOT Hips
{
	OFFSET 0.000000 0.000000 0.000000
	CHANNELS 6 Xposition Yposition Zposition Xrotation Yrotation Zrotation
	JOINT Chest
	{
		OFFSET 0.000000 0.009282 11.569106
		CHANNELS 3 Xrotation Yrotation Zrotation
		JOINT Chest2
		{
			OFFSET 0.000000 -0.016863 9.269641
			CHANNELS 3 Xrotation Yrotation Zrotation
			JOINT Chest3
			{
				OFFSET 0.000000 0.000000 8.374491
				CHANNELS 3 Xrotation Yrotation Zrotation
				JOINT Chest4
				{
					OFFSET 0.000000 0.000000 8.374493
					CHANNELS 3 Xrotation Yrotation Zrotation
					JOINT Neck
					{
						OFFSET 0.000000 -0.000001 12.152554
						CHANNELS 3 Xrotation Yrotation Zrotation
						JOINT Head
						{
							OFFSET 0.000000 -0.040100 7.802319
							CHANNELS 3 Xrotation Yrotation Zrotation
							End Site
							{
								OFFSET 0.000000 -0.020946 14.853096
							}
						}
					}
					JOINT RightCollar
					{
						OFFSET -2.894404 0.000000 6.791374
						CHANNELS 3 Xrotation Yrotation Zrotation
						JOINT RightShoulder
						{
							OFFSET -13.574684 0.000000 0.000000
							CHANNELS 3 Xrotation Yrotation Zrotation
							JOINT RightElbow
							{
								OFFSET -23.923903 0.000000 0.000000
								CHANNELS 3 Xrotation Yrotation Zrotation
								JOINT RightWrist
								{
									OFFSET -19.846718 -0.012765 0.000000
									CHANNELS 3 Xrotation Yrotation Zrotation
									End Site
									{
										OFFSET -14.973145 0.000000 0.000000
									}
								}
							}
						}
					}
					JOINT LeftCollar
					{
						OFFSET 2.894404 0.000000 6.791374
						CHANNELS 3 Xrotation Yrotation Zrotation
						JOINT LeftShoulder
						{
							OFFSET 13.574684 0.000000 0.000000
							CHANNELS 3 Xrotation Yrotation Zrotation
							JOINT LeftElbow
							{
								OFFSET 23.923903 0.000000 0.000000
								CHANNELS 3 Xrotation Yrotation Zrotation
								JOINT LeftWrist
								{
									OFFSET 19.846718 -0.012765 0.000000
									CHANNELS 3 Xrotation Yrotation Zrotation
									End Site
									{
										OFFSET 14.973145 0.000000 0.000000
									}
								}
							}
						}
					}
				}
			}
		}
	}
	JOINT RightHip
	{
		OFFSET -9.469263 -0.004642 0.045487
		CHANNELS 3 Xrotation Yrotation Zrotation
		JOINT RightKnee
		{
			OFFSET 0.000000 -0.002666 -40.478676
			CHANNELS 3 Xrotation Yrotation Zrotation
			JOINT RightAnkle
			{
				OFFSET 0.000000 -0.049110 -35.224068
				CHANNELS 3 Xrotation Yrotation Zrotation
				JOINT RightToe
				{
					OFFSET 0.000000 -12.539530 -6.151390
					CHANNELS 3 Xrotation Yrotation Zrotation
					End Site
					{
						OFFSET 0.000000 -5.044995 -1.291870
					}
				}
			}
		}
	}
	JOINT LeftHip
	{
		OFFSET 9.469263 -0.004642 0.045487
		CHANNELS 3 Xrotation Yrotation Zrotation
		JOINT LeftKnee
		{
			OFFSET 0.000000 -0.002666 -40.478676
			CHANNELS 3 Xrotation Yrotation Zrotation
			JOINT LeftAnkle
			{
				OFFSET 0.000000 -0.049110 -35.224068
				CHANNELS 3 Xrotation Yrotation Zrotation
				JOINT LeftToe
				{
					OFFSET 0.000000 -12.539530 -6.151390
					CHANNELS 3 Xrotation Yrotation Zrotation
					End Site
					{
						OFFSET 0.000000 -5.044995 -1.291870
					}
				}
			}
		}
	}
}
MOTION
Frames: 16
Frame Time: 0.016667
-80.018303 20.654671 81.788589 0.375559 5.510898 -97.546556 3.937432 1.395977 -0.451884 1.743841 0.607884 -0.206565 1.743841 0.607884 -0.206564 1.307664 0.456507 -0.153188 19.099975 -4.484085 -7.024413 -0.894952 -5.949802 -14.277420 -0.766955 -8.359759 -2.545424 25.103974 -43.864400 12.717500 38.038297 -15.113059 52.167332 -42.290902 19.993495 85.217757 -2.426112 7.481866 -3.458653 11.237166 43.483696 -0.071085 60.342823 19.949398 -48.403474 -15.071878 -14.847812 -60.932534 -7.398772 16.182267 -20.228541 5.404227 0.648316 -19.736463 18.787513 -12.796921 18.225520 -0.737813 0.211059 0.149961 10.002114 9.299250 -4.586981 3.916354 1.266199 8.441978 -7.842289 -8.345057 9.206298 -0.021851 0.164947 -0.034240 
-79.930336 20.580536 81.830994 0.535607 5.472670 -97.608232 3.973790 1.297385 -0.436205 1.757714 0.566672 -0.204428 1.757714 0.566672 -0.204433 1.318085 0.425596 -0.151695 19.035052 -4.483658 -7.024757 -1.015275 -5.942146 -14.281136 -0.781182 -8.348032 -2.547787 25.103812 -43.782735 12.705643 38.055406 -15.087056 52.353619 -42.315457 19.988011 85.218836 -2.439902 7.476235 -3.459503 11.262335 43.551103 -0.081425 60.288604 19.911444 -48.325286 -15.037906 -14.857605 -60.855251 -7.215830 16.326787 -19.264226 5.689760 0.659389 -18.806000 18.705332 -13.658440 19.042173 -0.876772 0.108093 0.131652 9.906439 9.201838 -4.377700 3.909330 1.244355 8.491961 -7.735752 -8.352760 9.024106 -0.042103 0.129483 -0.038501 
-79.872284 20.489471 81.870491 0.687935 5.427223 -97.650682 4.001826 1.205266 -0.429003 1.770743 0.528368 -0.203403 1.770743 0.528368 -0.203401 1.327871 0.396870 -0.151026 18.967444 -4.483380 -7.026431 -1.140613 -5.934066 -14.287452 -0.806972 -8.337340 -2.558698 25.138177 -43.677130 12.716671 38.067486 -15.090955 52.549515 -42.335264 19.994583 85.202245 -2.469739 7.472791 -3.468041 11.252592 43.610129 -0.062652 60.271720 19.866247 -48.250973 -14.993273 -14.860939 -60.764464 -7.022279 16.505734 -18.331622 6.062357 0.687050 -17.899054 18.549180 -14.453133 19.836855 -1.042779 -0.045172 0.113957 9.821485 9.116050 -4.168518 3.908588 1.228126 8.533100 -7.653591 -8.343641 8.883197 -0.066082 0.078917 -0.037466 
-79.834335 20.390976 81.903534 0.829832 5.375650 -97.672463 4.026803 1.120047 -0.432367 1.783175 0.495806 -0.202960 1.783176 0.495806 -0.202960 1.337210 0.372450 -0.150777 18.894567 -4.484884 -7.029343 -1.275877 -5.928271 -14.296858 -0.843610 -8.327100 -2.575955 25.165542 -43.576733 12.728919 38.096832 -15.111090 52.729720 -42.345216 20.006264 85.180771 -2.509527 7.464358 -3.486387 11.226323 43.654270 -0.044129 60.281385 19.837641 -48.186988 -14.939007 -14.866581 -60.688082 -6.779005 16.690544 -17.481442 6.448502 0.739856 -17.039075 18.409798 -15.110200 20.930005 -1.270659 -0.236314 0.103904 9.750587 9.040624 -3.989141 3.899530 1.225199 8.574732 -7.572965 -8.336782 8.749292 -0.102042 0.026663 -0.030990 
-79.808922 20.287119 81.928101 0.955871 5.307145 -97.696096 4.035550 1.045459 -0.418607 1.794808 0.468990 -0.204336 1.794808 0.468990 -0.204337 1.345942 0.352346 -0.151877 18.813177 -4.489405 -7.033807 -1.427252 -5.926568 -14.310528 -0.897094 -8.323884 -2.597425 25.164292 -43.496035 12.718830 38.150793 -15.125553 52.879823 -42.349598 20.010800 85.163067 -2.535332 7.454982 -3.515579 11.219941 43.673264 -0.063263 60.289820 19.836654 -48.133081 -14.893501 -14.884693 -60.653063 -6.476072 16.894188 -16.754823 6.841735 0.769098 -16.216264 18.123470 -15.608509 21.380724 -1.472875 -0.500191 0.087952 9.659773 8.976754 -3.845734 3.907345 1.232257 8.604839 -7.548285 -8.347562 8.654597 -0.092973 -0.014153 -0.029984 
-79.795799 20.170275 81.943886 1.067045 5.245469 -97.712816 4.032237 0.981860 -0.403672 1.806344 0.446820 -0.208041 1.806344 0.446820 -0.208043 1.354601 0.335734 -0.154712 18.730112 -4.491728 -7.038619 -1.581460 -5.920567 -14.324189 -0.923875 -8.311302 -2.618915 25.156989 -43.447294 12.723565 38.206996 -15.120750 52.998412 -42.352125 20.011056 85.151285 -2.545279 7.454894 -3.544789 11.276027 43.668456 -0.130681 60.282710 19.835383 -48.096765 -14.883317 -14.884529 -60.648549 -6.106190 17.160256 -16.248387 7.344070 0.682804 -15.503986 17.609896 -15.818414 21.440268 -1.624092 -0.858937 0.046843 9.579622 8.944070 -3.798328 3.926445 1.233776 8.606179 -7.518850 -8.395065 8.625365 -0.086097 -0.032290 -0.030784 
-79.803261 20.047068 81.952225 1.161817 5.220781 -97.711983 4.050081 0.932903 -0.409148 1.818395 0.427221 -0.211777 1.818396 0.427221 -0.211777 1.363642 0.321048 -0.157564 18.644405 -4.487474 -7.044176 -1.739695 -5.902060 -14.337083 -0.920785 -8.292580 -2.625974 25.147988 -43.413724 12.740745 38.248370 -15.120055 53.093028 -42.346825 20.011892 85.146033 -2.538678 7.460940 -3.566503 11.361042 43.658774 -0.230393 60.259337 19.827715 -48.060821 -14.912275 -14.872039 -60.675856 -5.669740 17.505155 -15.976029 8.083631 0.450495 -15.173262 16.778616 -15.646744 21.302955 -1.677541 -1.329517 0.021993 9.547390 8.946429 -3.846531 3.947578 1.227498 8.614275 -7.483317 -8.460504 8.688708 -0.088750 -0.040607 -0.027210 
-79.826370 19.918531 81.954826 1.239368 5.213360 -97.707140 4.085917 0.900708 -0.421577 1.830346 0.411813 -0.211055 1.830346 0.411812 -0.211056 1.372611 0.309495 -0.157057 18.554748 -4.479501 -7.051083 -1.904793 -5.875921 -14.351341 -0.918277 -8.286467 -2.625126 25.157043 -43.376185 12.757660 38.264373 -15.126622 53.186143 -42.352391 20.017990 85.145111 -2.523499 7.457807 -3.592320 11.420438 43.653966 -0.320285 60.217639 19.826128 -48.027022 -14.928324 -14.866170 -60.708422 -5.196878 17.910199 -15.932582 9.098667 0.093858 -15.165815 15.528191 -15.083841 21.215860 -1.604748 -1.938909 0.023080 9.550297 8.967099 -3.930424 3.954850 1.213678 8.662614 -7.455250 -8.526885 8.664845 -0.088833 -0.039416 -0.022953 
-79.851349 19.805573 81.956650 1.312386 5.202483 -97.713718 4.114292 0.869933 -0.432464 1.836027 0.399150 -0.205295 1.836027 0.399150 -0.205294 1.376879 0.299982 -0.152773 18.476770 -4.463824 -7.057643 -2.047244 -5.837095 -14.361738 -0.892260 -8.280932 -2.628848 25.176455 -43.345685 12.796034 38.268945 -15.160317 53.262184 -42.364481 20.020406 85.152214 -2.490093 7.452531 -3.625322 11.415354 43.658340 -0.354700 60.180496 19.812333 -47.994964 -14.924954 -14.858486 -60.726850 -4.672334 18.310475 -16.180716 10.249039 -0.378314 -15.226034 13.985304 -14.073150 21.240321 -1.518061 -2.673995 0.061836 9.553976 8.986519 -3.968526 3.954832 1.197953 8.706995 -7.418392 -8.587461 8.616242 -0.099425 -0.034521 -0.014918 
-79.867867 19.720251 81.962006 1.377425 5.175561 -97.739679 4.126301 0.844451 -0.433379 1.836966 0.391971 -0.197324 1.836966 0.391971 -0.197326 1.377591 0.294574 -0.146819 18.410423 -4.444817 -7.057607 -2.167889 -5.795572 -14.358374 -0.904165 -8.295354 -2.637370 25.220779 -43.317217 12.834328 38.281066 -15.218595 53.308585 -42.394503 20.021504 85.173320 -2.487867 7.446622 -3.643667 11.376410 43.656028 -0.344935 60.168188 19.785772 -47.968094 -14.904800 -14.842732 -60.714801 -4.066010 18.651797 -16.762756 11.463270 -0.822521 -14.829056 12.126603 -12.842062 20.724771 -1.435059 -3.484638 0.081618 9.520327 8.996560 -3.950089 3.983900 1.186778 8.730579 -7.398103 -8.636641 8.660063 -0.105856 -0.026655 -0.007039 
-79.877686 19.644457 81.969269 1.414474 5.146591 -97.765928 4.125339 0.843676 -0.431850 1.831995 0.387920 -0.186516 1.831995 0.387920 -0.186517 1.373871 0.291502 -0.138724 18.362243 -4.425250 -7.059260 -2.254709 -5.754386 -14.356981 -0.947107 -8.316790 -2.658338 25.272475 -43.306528 12.838088 38.306768 -15.264897 53.335100 -42.425331 20.023326 85.185006 -2.516621 7.446466 -3.655656 11.344410 43.651367 -0.321550 60.166385 19.759182 -47.931894 -14.874091 -14.815341 -60.693812 -3.373785 18.958078 -17.614563 12.759270 -1.248856 -13.846010 10.051348 -11.422917 20.092675 -1.451296 -4.276495 0.110730 9.463660 9.022933 -3.976748 4.040025 1.172586 8.736285 -7.355448 -8.682882 8.724741 -0.130289 -0.012015 -0.002746 
-79.889404 19.578695 81.974991 1.443679 5.133447 -97.808773 4.115041 0.840792 -0.422757 1.828125 0.384158 -0.180724 1.828127 0.384158 -0.180725 1.370977 0.288662 -0.134393 18.323844 -4.395558 -7.054042 -2.322345 -5.698050 -14.339108 -0.957755 -8.312646 -2.657059 25.264124 -43.319730 12.797382 38.346950 -15.317275 53.358845 -42.431895 20.029709 85.184876 -2.546908 7.455315 -3.637916 11.317080 43.654133 -0.300175 60.169677 19.738405 -47.896975 -14.841579 -14.793722 -60.683137 -2.563295 19.169969 -18.586302 14.043360 -1.633651 -12.709321 7.981203 -9.892531 19.252331 -1.544354 -4.929891 0.133685 9.424490 9.053430 -4.034787 4.094902 1.167458 8.723139 -7.316136 -8.751260 8.807687 -0.142337 0.011538 -0.003397 
-79.914375 19.519453 81.977104 1.461964 5.152911 -97.856250 4.117728 0.849140 -0.408042 1.829499 0.384284 -0.173712 1.829498 0.384284 -0.173707 1.372009 0.288736 -0.129133 18.281515 -4.364890 -7.050978 -2.397079 -5.638836 -14.325010 -0.985836 -8.306075 -2.662375 25.268876 -43.350101 12.744550 38.366139 -15.367167 53.378348 -42.423101 20.039041 85.168552 -2.559392 7.443950 -3.631619 11.305855 43.661434 -0.293333 60.155839 19.720213 -47.887259 -14.821043 -14.777312 -60.674565 -1.658023 19.299709 -19.593560 15.406501 -1.992013 -11.819128 6.026947 -8.336013 18.696173 -1.752360 -5.348731 0.150439 9.440212 9.092999 -4.111172 4.121979 1.169048 8.721953 -7.274586 -8.821888 8.908744 -0.151553 0.031342 -0.005038 
-79.943642 19.469547 81.975418 1.461538 5.170639 -97.906097 4.117367 0.872022 -0.394254 1.831616 0.388188 -0.168246 1.831616 0.388189 -0.168248 1.373599 0.291649 -0.125024 18.229169 -4.331656 -7.046056 -2.490145 -5.574524 -14.307057 -1.003696 -8.308654 -2.657935 25.279326 -43.393425 12.704065 38.352847 -15.396575 53.376897 -42.424320 20.046498 85.161592 -2.567975 7.431466 -3.629444 11.301504 43.645401 -0.286847 60.135718 19.710989 -47.909457 -14.797345 -14.778948 -60.650693 -0.711714 19.366817 -20.528504 16.842137 -2.358330 -11.262342 4.283182 -6.989955 18.312490 -2.062326 -5.403745 0.149636 9.479074 9.146764 -4.156338 4.103241 1.153340 8.714581 -7.222043 -8.875407 8.958913 -0.153499 0.046530 -0.004727 
-79.965454 19.426180 81.971695 1.447417 5.170751 -97.950336 4.107856 0.904266 -0.382001 1.830781 0.394289 -0.163263 1.830782 0.394289 -0.163268 1.372975 0.296208 -0.121269 18.171059 -4.297615 -7.041125 -2.593790 -5.508147 -14.289009 -1.016457 -8.317828 -2.665590 25.310538 -43.434194 12.701833 38.309507 -15.431221 53.352278 -42.432472 20.047777 85.168873 -2.571065 7.423552 -3.646183 11.278090 43.611919 -0.275401 60.121436 19.713061 -47.934749 -14.765392 -14.787498 -60.617048 0.236439 19.389983 -21.294658 18.374812 -2.786331 -10.890417 2.644564 -5.918313 18.355343 -2.443735 -5.122489 0.127112 9.484256 9.205323 -4.174149 4.107669 1.131285 8.677018 -7.179044 -8.921202 8.963482 -0.151235 0.060712 -0.004594 
-79.972145 19.393633 81.968590 1.432780 5.152889 -97.993509 4.086242 0.933036 -0.370684 1.825435 0.400102 -0.159276 1.825435 0.400102 -0.159278 1.368966 0.300555 -0.118262 18.114143 -4.259159 -7.035190 -2.694732 -5.434204 -14.267540 -1.034976 -8.332695 -2.677164 25.329739 -43.467877 12.694736 38.277814 -15.461296 53.310105 -42.453673 20.043899 85.187205 -2.579871 7.419004 -3.660694 11.251910 43.579452 -0.272103 60.121094 19.722477 -47.950339 -14.741017 -14.783541 -60.590806 1.151641 19.390972 -21.850566 20.007226 -3.346457 -10.540444 1.147847 -5.074586 18.329516 -2.881564 -4.591723 0.085328 9.439089 9.248434 -4.191957 4.157174 1.125344 8.667934 -7.161278 -8.958500 8.952424 -0.144005 0.068514 -0.003235 
